<svg width="413" height="461" viewBox="0 0 413 461" fill="none" xmlns="http://www.w3.org/2000/svg">
<path d="M206.432 0C140.603 0 86.791 53.812 86.791 119.641C86.791 185.47 140.603 239.282 206.432 239.282C272.261 239.282 326.073 185.47 326.073 119.641C326.073 53.812 272.261 0 206.432 0Z" fill="white"/>
<path d="M411.755 334.89C408.62 327.053 404.441 319.739 399.739 312.947C375.706 277.42 338.613 253.91 296.817 248.163C291.593 247.641 285.846 248.685 281.666 251.82C259.723 268.016 233.601 276.375 206.433 276.375C179.265 276.375 153.143 268.016 131.2 251.82C127.02 248.685 121.273 247.118 116.049 248.163C74.2528 253.91 36.6368 277.42 13.1268 312.947C8.42482 319.739 4.24483 327.576 1.11083 334.89C-0.456174 338.025 0.0658253 341.682 1.63283 344.817C5.81283 352.131 11.0368 359.446 15.7388 365.715C23.0528 375.642 30.8898 384.523 39.7718 392.882C47.0858 400.196 55.4448 406.988 63.8048 413.78C105.078 444.605 154.711 460.8 205.911 460.8C257.111 460.8 306.744 444.604 348.017 413.78C356.376 407.511 364.735 400.196 372.05 392.882C380.409 384.523 388.768 375.641 396.083 365.715C401.307 358.923 406.01 352.131 410.189 344.817C412.8 341.682 413.322 338.024 411.755 334.89Z" fill="white"/>
</svg>
